<?xml version="1.0" encoding="iso-8859-1"?>
<!-- Uploaded to: SVG Repo, www.svgrepo.com, Generator: SVG Repo Mixer Tools -->
<svg height="800px" width="800px" version="1.1" id="Layer_1" xmlns="http://www.w3.org/2000/svg" xmlns:xlink="http://www.w3.org/1999/xlink" 
	 viewBox="0 0 512 512" xml:space="preserve">
<circle style="fill:#00D2FF;" cx="256" cy="256" r="203.034"/>
<path style="fill:#18BDF6;" d="M354.017,396.023c-112.132,0-203.035-90.902-203.035-203.034c0-50.468,18.456-96.599,48.931-132.114
	C115.072,85.22,52.966,163.331,52.966,256c0,112.132,90.902,203.034,203.034,203.034c61.664,0,116.866-27.527,154.103-70.921
	C392.283,393.228,373.481,396.023,354.017,396.023z"/>
<g>
	<path style="fill:#E4EAF6;" d="M354.787,125.291l4.745,14.236c0.73,2.191-0.9,4.454-3.21,4.454h-5.923
		c-1.869,0-3.384-1.515-3.384-3.384V126.36c0-1.869,1.515-3.384,3.384-3.384h1.178C353.034,122.977,354.327,123.91,354.787,125.291z
		"/>
	<path style="fill:#E4EAF6;" d="M340.014,140.364v0.233c0,1.869-1.515,3.384-3.384,3.384h-0.233c-1.869,0-3.384-1.515-3.384-3.384
		v-0.233c0-1.869,1.515-3.384,3.384-3.384h0.233C338.499,136.98,340.014,138.495,340.014,140.364z"/>
	<path style="fill:#E4EAF6;" d="M384.657,108.071l-1.986,5.96c-0.415,1.246-1.309,2.275-2.483,2.862l-7.741,3.87
		c-2.445,1.223-3.437,4.196-2.214,6.642l2.775,5.55c0.99,1.98,3.628,2.408,5.194,0.843l0.319-0.319c1.933-1.933,5.068-1.933,7.001,0
		l0,0c1.933,1.933,5.068,1.933,7.001,0l3.5-3.5l1.75-3.5l2.698,5.396c1.347,2.695-0.004,5.958-2.862,6.911l-14.826,4.942
		c-0.504,0.168-1.034,0.254-1.566,0.254H370.07c-1.313,0-2.572,0.522-3.5,1.45l-5.551,5.551h-2.451
		c-2.513,0-4.551,2.037-4.551,4.551v4.502c0,2.734-2.217,4.95-4.95,4.95h-11.103c-2.734,0-4.95,2.217-4.95,4.95v11.103
		c0,2.734,2.217,4.95,4.95,4.95h19.486c2.131,0,4.023-1.364,4.696-3.385l5.873-17.619h7.001l16.235,10.824
		c2.038,1.358,4.768-0.103,4.768-2.552l0,0c0-0.813-0.323-1.593-0.898-2.168l-6.103-6.103h7.001l11.266,5.633
		c1.677,0.839,2.737,2.552,2.737,4.428v7.384c0,1.965,1.593,3.559,3.559,3.559h1.242c1.348,0,2.58-0.761,3.183-1.967l1.59-3.179
		c1.824-3.649,7.031-3.649,8.856,0l2.573,5.146h7.001l4.149,12.448c1.236,3.706-2.108,7.316-5.897,6.368l-18.665-4.666
		c-0.393-0.098-0.796-0.148-1.201-0.148h-10.461c-1.62,0-2.933,1.313-2.933,2.933l0,0c0,2.002-1.961,3.415-3.86,2.782l-13.759-4.586
		c-2.022-0.674-3.385-2.566-3.385-4.696v-5.484c0-2.734-2.217-4.95-4.95-4.95h-8.248c-0.532,0-1.06,0.086-1.566,0.254l-19.479,6.493
		c-0.504,0.168-1.034,0.254-1.566,0.254h-10.14c-1.875,0-3.59,1.059-4.428,2.737l-5.018,10.038
		c-0.407,0.813-0.941,1.556-1.585,2.199l-10.553,10.553c-1.587,1.587-2.478,3.738-2.478,5.982v20.996
		c0,2.243,0.892,4.395,2.478,5.982l16.047,16.047c1.587,1.587,3.738,2.478,5.982,2.478h40.554c2.734,0,4.95,2.217,4.95,4.95v21.886
		c0,0.769,0.179,1.526,0.523,2.214l5.956,11.912c0.343,0.687,0.523,1.445,0.523,2.214V325.4c0,0.405,0.05,0.808,0.148,1.201
		l12.917,51.668c0.551,2.204,2.531,3.75,4.803,3.75h5.775c1.554,0,3.031-0.71,3.982-1.939
		c26.547-34.314,42.386-77.335,42.386-124.079c0-59.457-25.585-112.916-66.315-150.046
		C390.066,103.537,385.791,104.665,384.657,108.071z"/>
	<path style="fill:#E4EAF6;" d="M247.403,286.219l-3.81-11.43c-0.953-2.859-3.628-4.787-6.642-4.787h-6.056
		c-1.857,0-3.638-0.737-4.95-2.05l-9.901-9.901c-1.313-1.313-3.094-2.05-4.95-2.05h-8.202c-1.857,0-3.638-0.737-4.95-2.05
		l-1.383-1.383c-2.131-2.131-5.386-2.659-8.082-1.312l-8.011,4.006c-0.972,0.487-2.044,0.739-3.13,0.739h-7.304
		c-3.014,0-5.689-1.929-6.642-4.787l-4.19-12.57c-0.757-2.271-2.622-3.998-4.943-4.578l-14.638-3.659
		c-4.697-1.174-6.813-6.647-4.127-10.676l6.413-9.62c1.299-1.948,3.485-3.117,5.825-3.117h12.93c2.652,0,5.076,1.498,6.262,3.87
		l3.87,7.741c0.733,1.465,2.231,2.392,3.87,2.392l0,0c2.39,0,4.327-1.938,4.327-4.327v-13.503c0-2.019,0.872-3.939,2.391-5.269
		l51.639-45.184c1.277-1.117,2.914-1.732,4.61-1.732h15.66c4.779,0,8.153-4.682,6.642-9.215l-3.012-9.037
		c-0.587-1.761-1.85-3.218-3.511-4.049l-20.184-10.092c-3.027-1.513-6.702-0.646-8.732,2.061l-13.524,18.031
		c-2.229,2.973-6.392,3.686-9.484,1.624l-7.26-4.84c-4.019-2.679-4.182-8.527-0.317-11.426l18.221-13.666
		c1.212-0.909,2.686-1.4,4.201-1.4h22.17c1.933,0,3.5,1.567,3.5,3.5l0,0c0,1.933,1.567,3.5,3.5,3.5H256
		c3.866,0,7.001-3.135,7.001-7.001v-7.001c0-3.866-3.135-7.001-7.001-7.001h-40.53c-5.529,0-10.934,1.636-15.534,4.703
		l-11.318,7.545c-1.124,0.749-2.631-0.056-2.631-1.408v-3.84c0-3.866-3.135-7.001-7.001-7.001h-11.103
		c-1.857,0-3.638,0.737-4.95,2.05l-7.893,7.893c-2.36,2.36-6.057,2.726-8.834,0.875l-10.61-7.073
		c-2.615-1.743-6.049-1.533-8.477,0.463c-23.786,19.57-43.028,44.433-55.946,72.804h2.795l12.041,42.142
		c1.161,4.065,4.876,6.867,9.103,6.867l0,0c4.286,0,8.289,2.142,10.666,5.708l8.588,12.883c1.03,1.545,2.632,2.617,4.452,2.982
		l28.804,5.761c2.119,0.424,3.923,1.802,4.889,3.734l3.534,7.07c1.186,2.372,3.61,3.87,6.262,3.87h9.675
		c3.866,0,7.001,3.135,7.001,7.001v4.102c0,1.857-0.737,3.638-2.05,4.95l-3.782,3.782c-0.769,0.769-1.347,1.706-1.692,2.737
		l-4.935,14.804c-0.928,2.783-0.022,5.848,2.269,7.681l28.566,22.854c1.661,1.329,2.627,3.34,2.627,5.466v57.993
		c0,1.087,0.253,2.158,0.739,3.13l18.329,36.659c1.186,2.372,3.61,3.87,6.262,3.87h1.411c4.327,0,7.617-3.885,6.905-8.152
		l-5.05-30.301c-0.372-2.23,0.356-4.503,1.955-6.102l23.406-23.406c1.313-1.313,2.05-3.094,2.05-4.95V354.01
		c0-3.866,3.135-7.001,7.001-7.001h8.957c3.014,0,5.689-1.929,6.642-4.787l10.716-32.147c0.999-2.995-0.131-6.289-2.759-8.04
		l-14.791-9.86c-1.15-0.767-2.502-1.176-3.883-1.176h-13.837C251.031,291.006,248.356,289.078,247.403,286.219z"/>
</g>
<g>
	<path style="fill:#C7CFE2;" d="M118.82,242.567l28.804,5.761c2.119,0.424,3.923,1.802,4.889,3.734l3.534,7.07
		c1.186,2.371,3.61,3.87,6.262,3.87h1.071c-3.389-9.223-6.119-18.762-8.151-28.557c-0.322-0.135-0.631-0.295-0.975-0.381
		l-14.638-3.659c-4.697-1.174-6.813-6.647-4.127-10.676l6.413-9.62c1.299-1.948,3.485-3.117,5.825-3.117h3.789
		c-0.316-4.632-0.534-9.29-0.534-14.003c0-35.565,9.197-68.957,25.277-98.017h-8.374c-1.857,0-3.638,0.738-4.951,2.05l-7.893,7.893
		c-2.36,2.36-6.058,2.726-8.834,0.875l-10.61-7.073c-2.556-1.704-5.882-1.514-8.298,0.36c-3.43,2.814-6.758,5.745-9.994,8.774
		c-1.113,1.043-2.186,2.125-3.274,3.194c-2.217,2.177-4.404,4.385-6.511,6.669c-1.302,1.412-2.622,2.807-3.892,4.248
		c-2.84,3.224-5.599,6.522-8.234,9.923c-0.951,1.23-1.841,2.509-2.765,3.762c-1.955,2.647-3.859,5.333-5.686,8.076
		c-1.114,1.675-2.197,3.373-3.263,5.082c-1.631,2.616-3.168,5.288-4.696,7.965c-0.851,1.49-1.724,2.965-2.527,4.484
		c-1.857,3.51-3.578,7.102-5.231,10.73h0.246c1.478,0,2.777,0.98,3.183,2.401l11.354,39.741c1.176,4.118,4.975,6.941,9.272,6.866
		c4.226-0.074,8.153,2.193,10.498,5.709l8.588,12.883C115.398,241.13,117,242.202,118.82,242.567z"/>
	<path style="fill:#C7CFE2;" d="M253.949,370.07c0.093-0.093,0.127-0.223,0.214-0.32c-35.028-19.831-63.564-49.752-81.674-85.837
		c-0.372,0.54-0.817,1.035-1.025,1.66l-4.935,14.805c-0.928,2.783-0.022,5.848,2.269,7.681l28.566,22.854
		c1.661,1.329,2.627,3.34,2.627,5.466v57.993c0,1.087,0.253,2.158,0.739,3.13l18.329,36.659c1.186,2.372,3.61,3.87,6.262,3.87h1.41
		c4.327,0,7.617-3.885,6.905-8.152l-5.05-30.301c-0.372-2.23,0.356-4.503,1.955-6.102L253.949,370.07z"/>
</g>
<circle style="fill:#A5D76E;" cx="114.759" cy="114.759" r="8.828"/>
<path style="fill:#C3E678;" d="M79.448,123.586c-4.879,0-8.828-3.953-8.828-8.828c0-24.337,19.801-44.138,44.138-44.138
	c4.879,0,8.828,3.953,8.828,8.828c0,4.875-3.948,8.828-8.828,8.828c-14.603,0-26.483,11.88-26.483,26.483
	C88.276,119.634,84.328,123.586,79.448,123.586z"/>
<path style="fill:#D2F578;" d="M44.138,123.586c-4.879,0-8.828-3.953-8.828-8.828c0-43.806,35.638-79.448,79.448-79.448
	c4.879,0,8.828,3.953,8.828,8.828s-3.948,8.828-8.828,8.828c-34.069,0-61.793,27.72-61.793,61.793
	C52.966,119.634,49.017,123.586,44.138,123.586z"/>
<path style="fill:#E6FFA0;" d="M8.828,123.586c-4.879,0-8.828-3.953-8.828-8.828C0,51.478,51.482,0,114.759,0
	c4.879,0,8.828,3.953,8.828,8.828s-3.948,8.828-8.828,8.828c-53.543,0-97.103,43.561-97.103,97.103
	C17.655,119.634,13.707,123.586,8.828,123.586z"/>
<circle style="fill:#A5D76E;" cx="397.241" cy="397.241" r="8.828"/>
<path style="fill:#C3E678;" d="M397.241,441.379c-4.879,0-8.828-3.948-8.828-8.828c0-4.879,3.948-8.828,8.828-8.828
	c14.603,0,26.483-11.88,26.483-26.483c0-4.879,3.948-8.828,8.828-8.828c4.879,0,8.828,3.948,8.828,8.828
	C441.379,421.578,421.578,441.379,397.241,441.379z"/>
<path style="fill:#D2F578;" d="M397.241,476.69c-4.879,0-8.828-3.948-8.828-8.828c0-4.879,3.948-8.828,8.828-8.828
	c34.069,0,61.793-27.724,61.793-61.793c0-4.879,3.948-8.828,8.828-8.828c4.879,0,8.828,3.948,8.828,8.828
	C476.69,441.052,441.052,476.69,397.241,476.69z"/>
<path style="fill:#E6FFA0;" d="M397.241,512c-4.879,0-8.828-3.948-8.828-8.828c0-4.879,3.948-8.828,8.828-8.828
	c53.543,0,97.103-43.561,97.103-97.103c0-4.879,3.948-8.828,8.828-8.828c4.879,0,8.828,3.948,8.828,8.828
	C512,460.518,460.518,512,397.241,512z"/>
</svg>